<mxfile host="app.diagrams.net" modified="2022-11-15T06:48:37.270Z" agent="5.0 (Macintosh; Intel Mac OS X 10_15_7) AppleWebKit/537.36 (KHTML, like Gecko) Chrome/107.0.0.0 Safari/537.36" etag="lJVfkPQPuIDpqUljIPZe" version="20.5.2" type="github">
  <diagram id="SjDKAw3Yh_CWd4yW74rd" name="Page-1">
    <mxGraphModel dx="829" dy="687" grid="1" gridSize="10" guides="1" tooltips="1" connect="1" arrows="1" fold="1" page="1" pageScale="1" pageWidth="850" pageHeight="1100" math="0" shadow="0">
      <root>
        <mxCell id="0" />
        <mxCell id="1" parent="0" />
        <mxCell id="MHUTWGy9dYnvRkQ7ibM0-5" style="edgeStyle=orthogonalEdgeStyle;rounded=1;orthogonalLoop=1;jettySize=auto;html=1;exitX=1;exitY=0.5;exitDx=0;exitDy=0;entryX=0;entryY=0.5;entryDx=0;entryDy=0;fontSize=13;" edge="1" parent="1" source="MHUTWGy9dYnvRkQ7ibM0-1" target="MHUTWGy9dYnvRkQ7ibM0-2">
          <mxGeometry relative="1" as="geometry" />
        </mxCell>
        <mxCell id="MHUTWGy9dYnvRkQ7ibM0-6" style="edgeStyle=orthogonalEdgeStyle;rounded=1;orthogonalLoop=1;jettySize=auto;html=1;exitX=1;exitY=0.5;exitDx=0;exitDy=0;entryX=0;entryY=0.5;entryDx=0;entryDy=0;fontSize=13;" edge="1" parent="1" source="MHUTWGy9dYnvRkQ7ibM0-1" target="MHUTWGy9dYnvRkQ7ibM0-4">
          <mxGeometry relative="1" as="geometry" />
        </mxCell>
        <mxCell id="MHUTWGy9dYnvRkQ7ibM0-1" value="依据语义分割生成的&lt;br style=&quot;font-size: 13px;&quot;&gt;mask" style="rounded=1;whiteSpace=wrap;html=1;fontSize=13;" vertex="1" parent="1">
          <mxGeometry x="100" y="290" width="120" height="60" as="geometry" />
        </mxCell>
        <mxCell id="MHUTWGy9dYnvRkQ7ibM0-8" value="" style="edgeStyle=orthogonalEdgeStyle;rounded=1;orthogonalLoop=1;jettySize=auto;html=1;fontSize=13;" edge="1" parent="1" source="MHUTWGy9dYnvRkQ7ibM0-2" target="MHUTWGy9dYnvRkQ7ibM0-7">
          <mxGeometry relative="1" as="geometry" />
        </mxCell>
        <mxCell id="MHUTWGy9dYnvRkQ7ibM0-2" value="提取噪声特征" style="rounded=1;whiteSpace=wrap;html=1;fontSize=13;" vertex="1" parent="1">
          <mxGeometry x="290" y="220" width="120" height="60" as="geometry" />
        </mxCell>
        <mxCell id="MHUTWGy9dYnvRkQ7ibM0-10" value="" style="edgeStyle=orthogonalEdgeStyle;rounded=1;orthogonalLoop=1;jettySize=auto;html=1;fontSize=13;" edge="1" parent="1" source="MHUTWGy9dYnvRkQ7ibM0-4" target="MHUTWGy9dYnvRkQ7ibM0-9">
          <mxGeometry relative="1" as="geometry" />
        </mxCell>
        <mxCell id="MHUTWGy9dYnvRkQ7ibM0-4" value="提取纹理特征" style="rounded=1;whiteSpace=wrap;html=1;fontSize=13;" vertex="1" parent="1">
          <mxGeometry x="290" y="360" width="120" height="60" as="geometry" />
        </mxCell>
        <mxCell id="MHUTWGy9dYnvRkQ7ibM0-12" value="" style="edgeStyle=orthogonalEdgeStyle;rounded=1;orthogonalLoop=1;jettySize=auto;html=1;entryX=0;entryY=0.5;entryDx=0;entryDy=0;fontSize=13;" edge="1" parent="1" source="MHUTWGy9dYnvRkQ7ibM0-7" target="MHUTWGy9dYnvRkQ7ibM0-11">
          <mxGeometry relative="1" as="geometry" />
        </mxCell>
        <mxCell id="MHUTWGy9dYnvRkQ7ibM0-7" value="通过与原图求差获取图像的噪声分布图" style="rounded=1;whiteSpace=wrap;html=1;fontSize=13;" vertex="1" parent="1">
          <mxGeometry x="490" y="220" width="120" height="60" as="geometry" />
        </mxCell>
        <mxCell id="MHUTWGy9dYnvRkQ7ibM0-13" style="edgeStyle=orthogonalEdgeStyle;rounded=1;orthogonalLoop=1;jettySize=auto;html=1;entryX=0;entryY=0.5;entryDx=0;entryDy=0;fontSize=13;" edge="1" parent="1" source="MHUTWGy9dYnvRkQ7ibM0-9" target="MHUTWGy9dYnvRkQ7ibM0-11">
          <mxGeometry relative="1" as="geometry" />
        </mxCell>
        <mxCell id="MHUTWGy9dYnvRkQ7ibM0-9" value="根据GLCM生成图像局部特征统计量" style="rounded=1;whiteSpace=wrap;html=1;fontSize=13;" vertex="1" parent="1">
          <mxGeometry x="490" y="360" width="120" height="60" as="geometry" />
        </mxCell>
        <mxCell id="MHUTWGy9dYnvRkQ7ibM0-15" value="" style="edgeStyle=orthogonalEdgeStyle;rounded=1;orthogonalLoop=1;jettySize=auto;html=1;fontSize=13;" edge="1" parent="1" source="MHUTWGy9dYnvRkQ7ibM0-11" target="MHUTWGy9dYnvRkQ7ibM0-14">
          <mxGeometry relative="1" as="geometry" />
        </mxCell>
        <mxCell id="MHUTWGy9dYnvRkQ7ibM0-11" value="根据各语义块的图像面积大小，求出单位图像尺寸内的噪声密度和统计量均值" style="rounded=1;whiteSpace=wrap;html=1;fontSize=13;" vertex="1" parent="1">
          <mxGeometry x="690" y="290" width="170" height="60" as="geometry" />
        </mxCell>
        <mxCell id="MHUTWGy9dYnvRkQ7ibM0-14" value="将计算得出的特征值与语义块类型进行绑定，合并生成到最终的图像特征csv文件中" style="rounded=1;whiteSpace=wrap;html=1;fontSize=13;" vertex="1" parent="1">
          <mxGeometry x="920" y="290" width="170" height="60" as="geometry" />
        </mxCell>
      </root>
    </mxGraphModel>
  </diagram>
</mxfile>
